<?xml version="1.0" standalone="no"?>
<!DOCTYPE svg PUBLIC "-//W3C//DTD SVG 20010904//EN"
 "http://www.w3.org/TR/2001/REC-SVG-20010904/DTD/svg10.dtd">
<svg version="1.0" xmlns="http://www.w3.org/2000/svg"
 width="3590.000000pt" height="3590.000000pt" viewBox="0 0 3590.000000 3590.000000"
 preserveAspectRatio="xMidYMid meet">
<metadata>
Created by potrace 1.14, written by Peter Selinger 2001-2017
</metadata>
<g transform="translate(0.000000,3590.000000) scale(0.100000,-0.100000)"
fill="#000000" stroke="none">
<path d="M17300 35890 c-113 -5 -290 -13 -395 -19 -3726 -217 -7252 -1570
-10165 -3902 -938 -752 -1804 -1601 -2586 -2539 -1150 -1379 -2090 -2931
-2780 -4589 l-65 -154 48 -49 47 -48 23 22 23 22 48 -47 48 -47 21 22 22 21
48 -40 c26 -23 59 -53 72 -67 l25 -26 23 22 23 22 50 -49 50 -49 23 22 23 22
73 -67 72 -66 22 21 21 22 48 -47 48 -47 22 21 21 22 54 -46 c52 -44 54 -45
73 -28 23 21 23 21 113 -64 l47 -45 22 21 21 22 54 -46 54 -46 22 21 21 22 48
-47 48 -47 22 21 21 22 71 -65 70 -64 23 22 23 22 50 -49 50 -49 22 21 21 22
52 -44 51 -44 22 22 22 21 48 -47 48 -47 22 22 22 22 43 -42 c48 -47 53 -49
78 -26 17 15 23 12 94 -46 73 -60 77 -61 95 -45 18 17 21 16 70 -25 47 -40 52
-41 69 -26 25 23 30 21 78 -26 l43 -42 22 22 22 22 48 -47 48 -47 25 24 25 24
48 -47 48 -47 22 22 22 22 48 -47 c48 -47 48 -48 67 -27 25 28 33 26 82 -22
l43 -42 22 22 22 22 48 -47 48 -47 25 24 25 24 48 -47 48 -47 22 22 22 22 48
-47 c48 -47 48 -48 67 -27 25 28 33 26 82 -22 l43 -42 22 21 21 22 52 -45 c51
-43 52 -44 70 -24 17 19 18 19 67 -21 45 -39 50 -40 67 -25 23 21 30 20 58 -6
l23 -22 22 22 22 21 52 -44 c51 -44 52 -44 69 -25 18 20 19 19 70 -24 l52 -45
21 21 21 21 51 -43 51 -43 22 22 23 21 44 -45 44 -45 23 21 22 22 51 -43 51
-43 21 21 21 21 52 -44 51 -44 22 21 22 22 25 -24 25 -24 22 22 22 22 48 -47
48 -47 22 21 22 22 51 -44 52 -44 21 22 22 21 45 -44 45 -44 25 24 25 24 28
-27 c28 -27 29 -27 47 -7 18 19 18 19 67 -22 l49 -41 22 21 21 21 51 -44 52
-44 21 22 22 21 25 -24 25 -24 22 22 22 21 51 -44 52 -44 21 22 22 21 45 -44
45 -44 22 21 22 22 51 -44 52 -44 21 22 22 21 25 -24 25 -24 22 21 21 22 52
-44 51 -44 22 21 22 22 25 -24 25 -24 22 22 21 21 49 -41 c45 -38 50 -39 67
-24 24 22 27 21 81 -24 47 -39 47 -39 65 -20 18 20 18 20 40 0 27 -25 37 -25
60 0 19 21 19 20 67 -27 l48 -47 23 22 24 22 18 -20 c23 -25 33 -25 60 0 l21
20 44 -45 44 -45 23 22 23 21 25 -23 25 -23 25 23 25 24 48 -47 48 -47 22 22
22 22 25 -24 25 -24 22 22 21 21 49 -41 49 -41 22 21 21 22 28 -27 28 -27 22
21 21 22 49 -41 49 -41 21 21 21 21 49 -41 c45 -39 49 -40 66 -25 24 22 35 21
57 -3 l18 -20 24 22 23 21 25 -23 25 -24 22 22 21 21 49 -41 49 -41 23 22 22
21 24 -25 24 -25 22 21 23 22 51 -43 51 -43 23 22 22 21 24 -25 24 -25 22 21
23 22 49 -41 49 -41 21 21 22 22 25 -24 25 -23 23 21 24 22 18 -20 c23 -25 37
-25 60 0 19 21 19 20 65 -25 46 -45 46 -46 65 -25 23 25 37 25 60 0 l18 -20
23 21 23 22 49 -41 49 -41 21 21 22 22 25 -24 25 -23 23 21 23 22 24 -25 24
-25 22 21 23 22 51 -43 51 -43 22 22 23 21 22 -22 22 -22 23 22 24 22 18 -20
c23 -25 37 -25 60 0 19 21 19 20 67 -27 l48 -47 25 24 25 23 23 -21 23 -22 22
22 22 22 25 -24 25 -24 22 22 21 21 49 -41 c45 -38 50 -39 67 -24 23 21 34 20
56 -4 l18 -20 22 20 c27 25 37 25 60 0 l18 -20 24 22 23 21 25 -23 25 -24 22
22 21 21 49 -41 49 -41 23 22 22 21 24 -25 24 -25 23 22 23 21 25 -23 25 -23
25 23 24 23 49 -41 49 -41 21 21 22 22 25 -24 25 -23 23 21 23 22 22 -22 22
-22 23 22 24 22 18 -20 c23 -25 33 -25 60 0 l21 20 24 -25 24 -25 22 21 23 22
49 -41 49 -41 21 21 22 22 25 -24 25 -23 23 21 23 22 22 -22 22 -22 25 24 25
23 25 -23 25 -24 22 22 21 21 49 -41 49 -41 23 22 22 21 24 -25 24 -25 23 22
23 21 23 -21 24 -22 18 20 c23 25 37 25 60 0 l18 -20 24 22 23 21 25 -23 25
-23 23 21 23 22 22 -22 22 -22 24 23 25 24 51 -43 51 -43 22 22 23 21 22 -22
22 -22 23 22 23 22 24 -25 24 -25 26 25 26 25 22 -22 c20 -20 22 -21 40 -5 24
22 35 21 57 -3 l18 -20 24 22 23 21 25 -23 25 -23 25 23 25 23 23 -21 23 -22
21 22 22 21 49 -41 49 -41 21 21 22 22 25 -24 25 -23 25 23 25 23 25 -23 25
-23 23 21 23 22 22 -22 22 -22 25 24 25 23 25 -23 25 -23 23 21 23 22 22 -22
22 -22 25 24 25 23 25 -23 25 -23 23 21 24 22 18 -20 c22 -24 33 -25 57 -3 17
15 19 15 36 0 24 -22 35 -21 57 3 l18 20 22 -20 c26 -24 33 -25 57 -3 17 15
20 15 41 -6 l24 -21 18 20 c24 27 30 26 81 -16 42 -34 46 -36 62 -20 24 21 35
20 57 -4 l18 -20 24 22 23 21 25 -23 25 -23 25 23 25 23 23 -21 23 -22 22 22
22 22 25 -24 25 -23 25 23 25 23 23 -21 23 -22 22 22 22 22 23 -22 24 -22 18
20 c10 11 23 20 30 20 7 0 20 -9 30 -20 l18 -20 24 22 23 21 23 -21 24 -22 18
20 c10 11 23 20 30 20 7 0 20 -9 30 -20 l18 -20 24 22 23 21 23 -21 24 -22 18
20 c10 11 23 20 30 20 7 0 20 -9 30 -20 l18 -20 24 22 23 21 23 -21 24 -22 18
20 c23 25 37 25 60 0 l18 -20 24 22 23 21 23 -21 23 -22 22 22 22 22 25 -24
25 -23 25 23 25 23 23 -21 23 -22 22 22 22 22 25 -24 25 -23 25 23 25 23 23
-21 23 -22 22 22 22 22 25 -24 25 -23 25 23 25 23 23 -21 23 -22 22 22 22 22
25 -24 25 -23 25 23 25 23 23 -21 24 -22 18 20 c10 11 23 20 30 20 7 0 20 -9
30 -20 l18 -20 24 22 23 22 22 -22 21 -21 49 41 49 41 23 -22 23 -21 18 20
c23 25 37 25 60 0 l18 -20 24 22 23 21 23 -21 23 -22 24 25 24 25 21 -20 c26
-24 33 -25 57 -3 17 15 19 15 36 0 24 -22 35 -21 57 3 l18 20 24 -22 23 -21
25 23 25 23 25 -23 25 -24 22 22 22 22 23 -22 23 -21 25 23 25 23 25 -23 25
-23 23 21 23 22 22 -22 22 -22 25 24 25 23 23 -21 24 -22 18 20 c10 11 23 20
30 20 7 0 20 9 30 20 l18 20 24 -22 23 -21 25 23 25 23 23 -21 23 -22 22 22
22 22 23 -22 23 -22 24 25 24 25 26 -25 26 -25 24 25 24 25 23 -22 23 -21 23
21 24 22 18 -20 c10 -11 23 -20 30 -20 7 0 20 9 30 20 l18 20 23 -21 23 -22
49 41 49 41 21 -21 22 -22 25 24 25 23 23 -21 23 -22 22 22 22 22 25 -24 25
-23 25 23 25 23 23 -21 23 -22 24 25 24 25 23 -22 23 -21 23 21 24 22 18 -20
c25 -28 33 -26 82 22 l43 42 25 -24 25 -23 23 21 23 22 22 -22 22 -22 25 24
25 23 25 -23 25 -23 23 21 23 22 22 -22 22 -22 25 24 25 24 22 -22 21 -21 49
41 49 41 23 -22 22 -21 24 25 24 25 23 -22 23 -21 25 23 25 23 25 -23 25 -23
25 23 25 24 22 -22 21 -21 49 41 49 41 22 -22 23 -21 22 22 22 22 23 -22 23
-22 24 25 24 25 26 -25 26 -25 24 25 24 25 22 -21 23 -22 49 41 49 41 21 -21
22 -22 25 24 25 23 23 -21 24 -22 18 20 c23 25 37 25 60 0 19 -21 19 -20 65
25 46 45 46 46 65 25 23 -25 37 -25 60 0 l18 20 24 -22 23 -21 25 23 25 24 22
-22 21 -21 49 41 49 41 23 -22 22 -21 24 25 24 25 23 -22 23 -21 25 23 25 23
25 -23 25 -24 45 44 45 44 23 -22 24 -22 18 20 c23 25 33 25 60 0 l21 -20 24
25 24 25 22 -21 23 -22 49 41 49 41 21 -21 22 -22 25 24 25 23 23 -21 23 -22
24 25 24 25 22 -21 23 -22 49 41 49 41 21 -21 22 -22 25 24 25 24 22 -22 22
-21 51 44 52 44 21 -22 22 -21 25 24 25 23 25 -23 25 -24 45 44 45 44 23 -22
24 -22 18 20 c23 25 33 25 60 0 l21 -20 24 25 24 25 23 -22 23 -22 45 44 45
44 25 -24 25 -23 25 23 25 24 22 -22 22 -22 48 47 48 47 23 -22 24 -22 18 20
c23 25 33 25 60 0 l21 -20 44 45 44 45 23 -22 23 -21 25 23 25 23 25 -23 25
-24 45 44 45 44 22 -21 23 -22 29 25 28 25 24 -22 24 -23 45 44 45 44 23 -22
24 -22 18 20 c22 24 33 25 57 3 17 -15 21 -14 69 27 l51 43 21 -21 20 -21 49
41 49 41 23 -22 22 -21 24 25 24 25 22 -21 23 -22 51 43 51 43 23 -22 22 -21
24 25 24 25 22 -21 23 -22 51 43 51 43 22 -22 23 -21 44 45 44 45 23 -22 23
-21 25 23 25 23 25 -23 25 -24 48 47 48 47 21 -22 22 -21 49 41 49 41 21 -22
22 -21 28 27 28 27 21 -22 22 -21 49 41 49 41 21 -22 22 -21 48 47 48 47 22
-22 22 -22 25 24 25 23 25 -23 25 -24 48 47 48 47 21 -22 22 -21 49 41 49 41
20 -21 21 -21 51 43 c50 42 51 43 71 25 20 -18 21 -18 43 3 28 26 35 27 59 5
17 -15 21 -14 66 25 l49 41 21 -21 21 -21 51 43 51 43 22 -21 21 -22 48 47 48
47 22 -21 21 -22 49 41 c45 38 50 39 67 24 23 -21 30 -20 58 6 l23 22 22 -22
22 -22 48 47 48 47 22 -21 22 -22 51 44 52 44 21 -22 22 -21 43 42 c23 23 47
42 52 42 5 0 18 -9 30 -20 l21 -20 44 45 44 45 22 -21 23 -21 50 42 c48 41 52
42 69 27 26 -24 31 -22 79 25 l43 42 22 -21 21 -22 52 44 51 44 22 -22 22 -21
48 47 48 47 21 -22 22 -21 51 43 c49 41 51 42 70 25 19 -17 21 -16 70 25 l51
43 22 -21 21 -22 48 47 48 47 22 -21 22 -22 51 44 52 44 21 -22 22 -21 48 47
48 47 21 -22 22 -21 51 43 51 43 22 -21 21 -22 48 47 48 47 22 -21 21 -22 52
44 51 44 22 -22 22 -21 50 49 50 49 22 -21 22 -22 51 44 c51 43 52 44 71 24
19 -19 20 -19 90 45 l71 65 21 -21 21 -21 51 43 c47 40 52 41 69 26 26 -23 32
-21 81 29 l44 45 23 -22 23 -22 43 42 c48 47 53 49 78 26 17 -15 21 -14 66 24
26 22 59 52 72 66 l25 26 22 -21 23 -22 51 43 51 43 22 -22 23 -21 44 45 c49
50 55 52 82 28 18 -16 21 -15 61 23 23 22 54 50 70 63 l27 24 23 -21 23 -22
49 50 49 50 22 -21 23 -22 73 66 73 66 23 -21 22 -22 48 47 48 47 21 -22 22
-21 73 66 73 66 23 -21 22 -22 48 47 48 47 21 -22 22 -21 72 66 73 67 23 -22
23 -22 50 49 50 49 23 -22 23 -22 25 26 c13 14 46 44 72 66 l48 41 22 -22 23
-21 69 70 69 70 23 -22 22 -21 56 47 c30 26 55 50 55 52 0 20 -292 649 -420
904 -1323 2643 -3300 4943 -5720 6655 -2027 1434 -4365 2440 -6798 2925 -889
177 -1707 278 -2662 330 -256 14 -1269 21 -1530 10z"/>
<path d="M35819 16874 c-13 -14 -46 -44 -72 -67 l-48 -40 -22 21 -21 22 -48
-47 -48 -47 -23 22 -23 22 -44 -45 c-50 -50 -59 -53 -85 -25 -17 19 -19 18
-88 -45 -71 -64 -72 -65 -91 -46 -19 20 -20 19 -73 -26 l-54 -46 -22 21 -21
22 -48 -47 -48 -47 -22 22 -22 22 -48 -47 -48 -47 -23 22 -23 22 -73 -67 -72
-66 -22 21 -21 22 -48 -47 -48 -47 -25 24 -25 24 -48 -47 -48 -47 -22 22 -22
22 -50 -49 -50 -49 -22 21 -21 22 -49 -41 c-45 -38 -50 -39 -67 -24 -25 23
-32 21 -76 -24 -44 -45 -51 -47 -77 -23 -20 18 -19 19 -116 -71 l-42 -40 -22
21 -21 22 -52 -44 -51 -44 -22 22 -22 21 -48 -47 -48 -47 -22 22 -22 22 -48
-47 c-48 -47 -48 -48 -67 -27 -25 28 -33 26 -82 -22 l-43 -42 -22 22 -22 22
-48 -47 -48 -47 -22 21 -21 22 -52 -44 -51 -44 -22 22 -22 21 -48 -47 -48 -47
-21 22 -22 21 -51 -43 c-47 -40 -52 -41 -69 -26 -25 23 -30 21 -78 -26 l-43
-42 -22 21 -21 22 -52 -44 -51 -44 -22 22 -22 21 -48 -47 -48 -47 -21 22 -22
21 -51 -43 -51 -43 -21 21 -21 21 -52 -45 c-51 -43 -52 -44 -70 -24 -18 19
-18 19 -48 -6 l-30 -25 -20 20 -20 20 -49 -41 -49 -41 -21 21 -21 21 -52 -44
-51 -44 -22 22 -22 21 -48 -47 -48 -47 -21 22 -22 21 -51 -43 -51 -43 -22 22
-23 21 -44 -45 -44 -45 -23 21 -22 22 -51 -43 -51 -43 -22 21 -21 22 -28 -27
-28 -27 -22 21 -21 22 -49 -41 c-45 -38 -50 -39 -67 -24 -25 23 -30 21 -78
-26 l-43 -42 -22 21 -22 22 -51 -44 -52 -44 -21 22 -22 21 -45 -44 -45 -44
-22 22 -22 22 -28 -27 -28 -27 -22 22 -22 21 -51 -44 -52 -44 -21 21 -21 21
-49 -41 -49 -41 -21 22 -22 21 -28 -27 -28 -27 -22 22 -22 22 -45 -44 -45 -44
-25 24 -25 24 -48 -47 -48 -47 -21 22 -22 21 -49 -41 -49 -41 -21 22 -22 21
-28 -27 -28 -27 -21 22 -22 21 -49 -41 -49 -41 -21 22 -22 21 -48 -47 -48 -47
-22 22 -22 22 -25 -24 -25 -24 -22 22 -22 21 -51 -44 -52 -44 -21 22 -22 21
-25 -24 -25 -24 -22 22 -21 21 -49 -41 -49 -41 -21 21 -21 21 -52 -44 -51 -44
-22 21 -22 22 -25 -24 -25 -23 -23 21 -23 22 -44 -45 -44 -45 -21 20 c-27 25
-33 25 -62 -2 l-23 -21 -23 21 -23 22 -44 -45 -44 -45 -23 21 -22 22 -51 -43
-51 -43 -23 22 -23 21 -18 -20 c-22 -24 -33 -25 -56 -4 -17 15 -22 14 -67 -24
l-49 -41 -21 21 -22 22 -25 -24 -25 -24 -22 22 -22 21 -51 -44 -52 -44 -21 22
-22 21 -25 -24 -25 -24 -22 22 -21 21 -49 -41 -49 -41 -23 22 -22 21 -24 -25
-24 -25 -22 21 -23 22 -51 -43 -51 -43 -23 22 -22 21 -24 -25 -24 -25 -22 21
-23 22 -49 -41 -49 -41 -21 21 -22 22 -25 -24 -25 -24 -22 22 -21 21 -49 -41
c-45 -38 -50 -39 -67 -24 -23 21 -34 20 -56 -4 l-18 -20 -24 22 -23 21 -23
-21 c-28 -26 -35 -27 -59 -5 -17 15 -21 14 -66 -25 l-49 -41 -21 22 -22 21
-25 -24 -25 -23 -25 23 -25 24 -45 -44 -45 -44 -25 24 -25 23 -25 -23 -25 -23
-23 21 -23 22 -44 -45 -44 -45 -23 22 -23 21 -25 -23 -25 -23 -25 23 -25 23
-25 -23 -25 -24 -22 21 -21 22 -52 -44 -51 -44 -22 21 -22 22 -23 -22 -23 -22
-22 22 -22 22 -25 -24 -25 -24 -22 22 -21 21 -49 -41 -49 -41 -23 22 -22 21
-24 -25 -24 -25 -21 20 c-12 11 -25 20 -30 20 -5 0 -28 -19 -52 -42 l-43 -42
-23 22 -24 22 -18 -20 c-10 -11 -23 -20 -30 -20 -7 0 -20 9 -30 20 l-18 20
-24 -21 c-21 -21 -24 -21 -41 -6 -25 23 -28 22 -81 -22 l-48 -40 -21 21 -22
22 -23 -22 -23 -22 -22 22 -22 22 -25 -24 -25 -24 -22 22 -21 21 -49 -41 c-45
-38 -50 -39 -67 -24 -23 21 -34 20 -56 -4 l-18 -20 -22 20 c-27 25 -37 25 -60
0 l-18 -20 -24 22 -23 21 -25 -23 -25 -24 -22 22 -21 21 -49 -41 -49 -41 -23
22 -22 21 -24 -25 -24 -25 -21 20 c-27 25 -37 25 -60 0 l-18 -20 -24 22 -23
22 -45 -44 -45 -44 -25 24 -25 23 -25 -23 -25 -23 -23 21 -24 22 -18 -20 c-22
-24 -33 -25 -57 -3 -17 15 -20 15 -41 -6 l-24 -21 -18 20 c-25 28 -33 26 -82
-22 l-43 -42 -25 24 -25 23 -23 -21 -23 -22 -22 22 -22 22 -25 -24 -25 -23
-23 21 -24 22 -18 -20 c-23 -25 -37 -25 -60 0 -17 19 -18 19 -66 -22 -46 -39
-50 -40 -67 -25 -24 22 -35 21 -57 -3 l-18 -20 -24 22 -23 21 -23 -21 -23 -22
-22 22 -22 22 -25 -24 -25 -23 -25 23 -25 23 -25 -23 -25 -24 -22 22 -21 21
-49 -41 -49 -41 -23 22 -22 21 -24 -25 -24 -25 -26 25 -26 25 -22 -22 -22 -22
-23 22 -23 22 -24 -25 -24 -25 -23 22 -23 21 -23 -21 -24 -22 -18 20 c-24 27
-30 26 -81 -16 -42 -34 -46 -36 -62 -20 -24 21 -35 20 -57 -4 l-18 -20 -24 22
-23 21 -25 -23 -25 -23 -23 21 -24 22 -18 -20 c-10 -11 -23 -20 -30 -20 -7 0
-20 9 -30 20 l-18 20 -24 -22 -23 -21 -23 21 -23 22 -24 -25 -24 -25 -26 25
-26 25 -24 -25 -24 -25 -22 21 -23 22 -49 -41 -49 -41 -21 21 -22 22 -23 -22
-24 -22 -18 20 c-10 11 -23 20 -30 20 -7 0 -20 -9 -30 -20 l-18 -20 -24 22
-23 21 -23 -21 -23 -22 -22 22 -22 22 -25 -24 -25 -23 -25 23 -25 23 -25 -23
-25 -23 -23 21 -23 22 -22 -22 -22 -22 -22 21 -21 22 -49 -41 -49 -41 -23 22
-23 21 -27 -21 c-25 -20 -28 -20 -45 -5 -23 21 -34 20 -56 -4 l-18 -20 -24 22
-23 21 -23 -21 -24 -22 -18 20 c-10 11 -23 20 -30 20 -7 0 -20 -9 -30 -20
l-18 -20 -24 22 -23 21 -23 -21 -24 -22 -18 20 c-10 11 -23 20 -30 20 -7 0
-20 -9 -30 -20 l-18 -20 -24 22 -23 21 -25 -23 -25 -23 -23 21 -23 22 -22 -22
-22 -22 -25 24 -25 23 -25 -23 -25 -23 -23 21 -23 22 -22 -22 -22 -22 -25 24
-25 23 -25 -23 -25 -23 -23 21 -23 22 -22 -22 -22 -22 -23 22 -24 22 -18 -20
c-23 -25 -37 -25 -60 0 -18 19 -18 19 -67 -22 l-49 -41 -24 23 -25 23 -23 -21
-23 -22 -22 22 -22 22 -25 -24 -25 -23 -23 21 -23 22 -22 -22 -22 -22 -25 24
-25 23 -25 -23 -25 -23 -23 21 -23 22 -22 -22 -22 -22 -25 24 -25 23 -25 -23
-25 -23 -23 21 -23 22 -22 -22 -22 -22 -25 24 -25 23 -25 -23 -25 -23 -23 21
-23 22 -22 -22 -22 -22 -25 24 -25 23 -25 -23 -25 -23 -23 21 -23 22 -22 -22
-22 -22 -25 24 -25 23 -25 -23 -25 -23 -23 21 -23 22 -22 -22 -22 -22 -25 24
-25 23 -25 -23 -25 -23 -23 21 -23 22 -22 -22 -22 -22 -25 24 -25 23 -25 -23
-25 -23 -23 21 -23 22 -22 -22 -22 -22 -25 24 -25 23 -23 -21 -23 -22 -22 22
-22 22 -25 -24 -25 -23 -25 23 -25 23 -23 -21 -24 -22 -18 20 c-23 25 -37 25
-60 0 -18 -19 -18 -19 -65 20 -47 39 -47 39 -65 20 -22 -24 -33 -25 -57 -3
-17 15 -19 15 -36 0 -24 -22 -35 -21 -57 3 l-18 20 -24 -22 -23 -21 -25 23
-25 23 -25 -23 -25 -23 -23 21 -23 22 -22 -22 -22 -22 -25 24 -25 23 -25 -23
-25 -23 -25 23 -25 23 -23 -21 -23 -22 -22 22 -22 22 -25 -24 -25 -23 -25 23
-25 23 -23 -21 -23 -22 -22 22 -22 22 -23 -22 -24 -22 -18 20 c-23 25 -37 25
-60 0 l-18 -20 -24 22 -23 21 -23 -21 -24 -22 -18 20 c-23 25 -37 25 -60 0
l-18 -20 -24 22 -23 22 -22 -21 -21 -22 -49 41 c-45 39 -49 40 -66 25 -24 -22
-35 -21 -57 3 l-18 20 -22 -20 c-12 -11 -26 -20 -32 -20 -5 0 -18 9 -28 20
l-18 20 -24 -22 -23 -21 -23 21 -23 22 -22 -22 -22 -22 -25 24 -25 23 -25 -23
-25 -23 -25 23 -25 23 -23 -21 -23 -22 -22 22 -22 22 -25 -24 -25 -23 -25 23
-25 24 -22 -22 -21 -21 -49 41 -49 41 -23 -22 -22 -21 -24 25 -24 25 -23 -22
-23 -21 -23 21 -24 22 -18 -20 c-23 -25 -37 -25 -60 0 l-18 20 -24 -22 -23
-21 -25 23 -25 23 -23 -21 -23 -22 -22 22 -22 22 -24 -23 -25 -24 -49 41 -49
41 -21 -21 -22 -22 -25 24 -25 23 -23 -21 -23 -22 -24 25 -24 25 -26 -25 -26
-25 -22 22 -22 22 -23 -22 -23 -22 -24 25 -24 25 -23 -22 -23 -21 -25 23 -25
24 -22 -22 -21 -21 -49 41 -49 41 -24 -23 -25 -23 -25 23 -25 23 -23 -21 -23
-22 -22 22 -22 22 -23 -22 -24 -22 -18 20 c-23 25 -37 25 -60 0 -17 -19 -18
-19 -66 22 -46 39 -50 40 -67 25 -24 -22 -35 -21 -57 3 l-18 20 -24 -22 -23
-21 -25 23 -25 23 -23 -21 -23 -22 -22 22 -22 22 -25 -24 -25 -23 -25 23 -25
24 -22 -22 -21 -21 -49 41 -49 41 -23 -22 -22 -21 -24 25 -24 25 -23 -22 -23
-21 -25 23 -25 23 -25 -23 -25 -23 -25 23 -25 24 -22 -22 -21 -21 -49 41 -49
41 -23 -22 -23 -21 -18 20 c-22 24 -33 25 -57 3 -17 -15 -20 -15 -41 6 l-24
21 -18 -20 c-25 -28 -33 -26 -82 22 l-43 42 -25 -24 -25 -23 -23 21 -23 22
-22 -22 -22 -22 -25 24 -25 24 -22 -21 -21 -22 -49 41 c-45 39 -49 40 -66 25
-24 -22 -35 -21 -57 3 l-18 20 -24 -22 -23 -21 -25 23 -25 23 -25 -23 -25 -23
-25 23 -25 24 -22 -22 -21 -21 -49 41 c-45 38 -50 39 -67 24 -23 -21 -34 -20
-56 4 l-18 20 -23 -21 -23 -22 -49 41 -49 41 -21 -21 -22 -22 -25 24 -25 23
-23 -21 -23 -22 -24 25 -24 25 -21 -20 c-12 -11 -25 -20 -30 -20 -5 0 -28 19
-52 42 l-43 42 -23 -22 -23 -22 -22 22 -22 22 -25 -24 -25 -23 -25 23 -25 24
-22 -22 -22 -22 -48 47 -48 47 -25 -24 -25 -23 -23 21 -23 22 -22 -22 -22 -22
-25 24 -25 24 -22 -22 -22 -21 -51 44 -52 44 -21 -22 -22 -21 -25 24 -25 24
-22 -22 -21 -21 -49 41 -49 41 -23 -22 -22 -21 -24 25 -24 25 -22 -21 -23 -22
-49 41 -49 41 -21 -21 -22 -22 -25 24 -25 24 -22 -22 -22 -21 -51 44 -52 44
-21 -22 -22 -21 -25 24 -25 23 -23 -21 -24 -22 -18 20 c-22 24 -33 25 -57 3
-17 -15 -21 -14 -66 25 l-49 41 -21 -22 -22 -21 -25 24 -25 24 -22 -22 -21
-21 -48 40 c-53 44 -56 45 -80 23 -17 -15 -22 -14 -67 24 l-49 41 -21 -21 -22
-22 -25 24 -25 24 -22 -22 -21 -21 -49 41 c-45 38 -50 39 -67 24 -23 -21 -30
-20 -58 6 l-23 22 -22 -22 -21 -21 -49 41 -49 41 -23 -22 -22 -21 -24 25 -24
25 -22 -21 -23 -22 -49 41 -49 41 -21 -21 -22 -22 -23 22 c-28 26 -35 27 -58
6 -17 -15 -22 -14 -67 24 l-49 41 -21 -21 -22 -22 -25 24 -25 24 -22 -21 -21
-22 -52 44 -51 44 -21 -21 -22 -21 -49 41 -49 41 -21 -22 -22 -21 -28 27 -28
27 -22 -22 -22 -22 -45 44 -45 44 -23 -22 -24 -22 -18 20 c-22 24 -33 25 -56
4 -17 -15 -22 -14 -69 26 l-51 43 -21 -21 -21 -21 -49 41 -49 41 -22 -21 -21
-22 -28 27 -28 27 -23 -22 -23 -22 -39 40 c-45 46 -55 48 -80 20 -19 -21 -19
-20 -67 27 l-48 47 -23 -22 -24 -22 -18 20 c-22 24 -33 25 -57 3 -17 -15 -21
-14 -69 27 l-51 43 -21 -21 -20 -21 -49 41 c-45 38 -50 39 -67 24 -23 -21 -30
-20 -58 6 -22 21 -23 21 -43 3 -20 -18 -21 -17 -68 23 l-49 41 -21 -21 -21
-21 -51 43 -51 43 -21 -21 -21 -21 -52 44 -51 44 -22 -21 -22 -22 -25 24 c-24
23 -25 23 -45 5 -20 -18 -21 -17 -71 25 l-51 43 -21 -21 -21 -21 -51 44 -52
44 -21 -22 -22 -21 -45 44 -45 44 -25 -24 -25 -24 -48 47 -48 47 -22 -22 -22
-22 -25 24 -25 24 -22 -21 -21 -22 -52 44 -51 44 -22 -22 -22 -21 -48 47 -48
47 -21 -22 -22 -21 -51 43 -51 43 -22 -21 -21 -22 -48 47 -48 47 -22 -21 -21
-22 -49 41 c-45 38 -50 39 -67 24 -25 -23 -30 -21 -78 26 l-43 42 -22 -21 -21
-22 -52 44 -51 44 -21 -21 -21 -21 -51 43 c-48 41 -52 42 -69 27 -24 -22 -31
-21 -59 5 -22 21 -23 21 -43 3 -20 -18 -21 -17 -71 25 l-51 43 -21 -21 -21
-21 -52 44 c-51 44 -52 44 -69 25 -17 -19 -19 -19 -65 20 -54 45 -57 46 -81
24 -17 -15 -22 -14 -69 26 -49 41 -51 42 -70 25 -19 -18 -22 -17 -71 25 l-51
43 -21 -21 -21 -21 -52 44 c-51 44 -52 44 -69 25 -17 -19 -19 -19 -65 20 -54
45 -57 46 -81 24 -17 -15 -22 -14 -69 26 -49 41 -51 42 -70 25 -19 -17 -22
-16 -94 43 -72 60 -74 61 -91 42 -17 -19 -19 -18 -69 25 l-52 44 -22 -22 -22
-21 -48 47 -48 47 -21 -22 -22 -21 -51 43 c-47 40 -52 41 -69 26 -26 -23 -32
-21 -81 29 l-44 45 -23 -22 -23 -22 -43 42 c-48 47 -53 49 -79 25 -17 -15 -21
-14 -69 27 l-51 43 -20 -21 -21 -21 -71 65 -70 64 -23 -22 -23 -22 -50 49 -50
49 -27 -26 -26 -27 11 -138 c20 -219 60 -567 98 -838 242 -1731 731 -3400
1465 -5000 97 -212 395 -807 510 -1020 707 -1306 1584 -2534 2603 -3645 353
-385 950 -967 1376 -1341 2600 -2279 5823 -3764 9235 -4254 3082 -442 6195
-91 9075 1023 2920 1130 5554 3061 7501 5499 626 784 1140 1540 1622 2384
1065 1869 1789 3944 2121 6079 106 679 205 1701 167 1724 -4 3 -19 -6 -32 -20z"/>
</g>
</svg>
